<?xml version="1.0" encoding="utf-8"?>
<!-- Generator: Adobe Illustrator 25.2.3, SVG Export Plug-In . SVG Version: 6.00 Build 0)  -->
<svg version="1.1" id="Layer_1" xmlns="http://www.w3.org/2000/svg" xmlns:xlink="http://www.w3.org/1999/xlink" x="0px" y="0px"
	 viewBox="0 0 382 622" style="enable-background:new 0 0 382 622;" xml:space="preserve">
<style type="text/css">
	.st0{fill:url(#SVGID_1_);stroke:#4D4D4D;stroke-width:3;stroke-miterlimit:10;}
	.st1{fill:url(#SVGID_2_);stroke:#4D4D4D;stroke-width:3;stroke-miterlimit:10;}
	.st2{fill:#4D4D4D;stroke:#E6E6E6;stroke-miterlimit:10;}
	.st3{fill:url(#SVGID_3_);stroke:#E6E6E6;stroke-miterlimit:10;}
	.st4{opacity:0.9;fill:url(#SVGID_4_);stroke:#E6E6E6;stroke-miterlimit:10;}
	.st5{fill:url(#SVGID_5_);stroke:#E6E6E6;stroke-miterlimit:10;}
	.st6{opacity:0.8;fill:url(#SVGID_6_);stroke:#E6E6E6;stroke-miterlimit:10;}
	.st7{opacity:0.8;fill:url(#SVGID_7_);stroke:#E6E6E6;stroke-miterlimit:10;}
	.st8{fill:url(#SVGID_8_);stroke:#E6E6E6;stroke-miterlimit:10;}
	.st9{fill:url(#SVGID_9_);stroke:#E6E6E6;stroke-miterlimit:10;}
	.st10{fill:url(#SVGID_10_);stroke:#E6E6E6;stroke-miterlimit:10;}
	.st11{fill:url(#SVGID_11_);stroke:#E6E6E6;stroke-miterlimit:10;}
	.st12{fill:url(#SVGID_12_);stroke:#E6E6E6;stroke-miterlimit:10;}
	.st13{fill:url(#SVGID_13_);stroke:#E6E6E6;stroke-miterlimit:10;}
	.st14{fill:url(#SVGID_14_);stroke:#E6E6E6;stroke-miterlimit:10;}
	.st15{fill:url(#SVGID_15_);stroke:#E6E6E6;stroke-miterlimit:10;}
	.st16{fill:url(#SVGID_16_);stroke:#E6E6E6;stroke-miterlimit:10;}
	.st17{fill:url(#SVGID_17_);stroke:#E6E6E6;stroke-miterlimit:10;}
	.st18{fill:url(#SVGID_18_);stroke:#E6E6E6;stroke-miterlimit:10;}
	.st19{fill:url(#SVGID_19_);stroke:#E6E6E6;stroke-miterlimit:10;}
	.st20{fill:url(#SVGID_20_);stroke:#E6E6E6;stroke-miterlimit:10;}
	.st21{fill:url(#SVGID_21_);stroke:#E6E6E6;stroke-miterlimit:10;}
	.st22{fill:url(#SVGID_22_);stroke:#E6E6E6;stroke-miterlimit:10;}
	.st23{fill:url(#SVGID_23_);stroke:#666666;stroke-width:3;stroke-miterlimit:10;}
	.st24{fill:url(#SVGID_24_);stroke:#666666;stroke-width:3;stroke-miterlimit:10;}
	.st25{fill:url(#SVGID_25_);stroke:#666666;stroke-width:3;stroke-miterlimit:10;}
	.st26{fill:url(#SVGID_26_);stroke:#666666;stroke-width:3;stroke-miterlimit:10;}
	.st27{fill:url(#SVGID_27_);stroke:#666666;stroke-width:3;stroke-miterlimit:10;}
	.st28{fill:#FFFFFF;stroke:#4D4D4D;stroke-miterlimit:10;}
	.st29{fill:url(#SVGID_28_);stroke:#4D4D4D;stroke-miterlimit:10;}
	.st30{fill:url(#SVGID_29_);stroke:#4D4D4D;stroke-miterlimit:10;}
	.st31{fill:#FFFFFF;}
	.st32{fill:url(#SVGID_30_);stroke:#999999;stroke-miterlimit:10;}
</style>
<linearGradient id="SVGID_1_" gradientUnits="userSpaceOnUse" x1="8.5" y1="256.6636" x2="135.3967" y2="256.6636">
	<stop  offset="0" style="stop-color:#CCE0F4"/>
	<stop  offset="0.0641" style="stop-color:#C3DCF2"/>
	<stop  offset="0.1706" style="stop-color:#A9D2EE"/>
	<stop  offset="0.3066" style="stop-color:#80C2E7"/>
	<stop  offset="0.4649" style="stop-color:#47ACDE"/>
	<stop  offset="0.5674" style="stop-color:#1E9CD7"/>
	<stop  offset="0.8652" style="stop-color:#0075BE"/>
	<stop  offset="0.9944" style="stop-color:#005B97"/>
</linearGradient>
<path class="st0" d="M135.4,318.09c-13.35,10.58-30.23,16.89-48.58,16.89c-43.25,0-78.31-35.06-78.31-78.31
	c0-43.25,35.06-78.31,78.31-78.31c17.65,0,33.92,5.83,47.02,15.68c-5.23-1.38-10.72-2.11-16.39-2.11
	c-35.54,0-64.36,28.81-64.36,64.36s28.81,64.36,64.36,64.36C123.67,320.63,129.7,319.75,135.4,318.09z"/>
<linearGradient id="SVGID_2_" gradientUnits="userSpaceOnUse" x1="235.5547" y1="78.8553" x2="393.9979" y2="78.8553" gradientTransform="matrix(0.9918 -0.1275 0.1275 0.9918 -33.9433 81.8883)">
	<stop  offset="0" style="stop-color:#CCE0F4"/>
	<stop  offset="0.0641" style="stop-color:#C3DCF2"/>
	<stop  offset="0.1706" style="stop-color:#A9D2EE"/>
	<stop  offset="0.3066" style="stop-color:#80C2E7"/>
	<stop  offset="0.4649" style="stop-color:#47ACDE"/>
	<stop  offset="0.5674" style="stop-color:#1E9CD7"/>
	<stop  offset="0.8652" style="stop-color:#0075BE"/>
	<stop  offset="0.9944" style="stop-color:#005B97"/>
</linearGradient>
<path class="st1" d="M199.97,54.01c14.85-15.22,34.75-25.73,57.48-28.65c53.56-6.88,102.56,30.96,109.45,84.52
	c6.88,53.56-30.96,102.56-84.52,109.45c-21.85,2.81-42.94-1.82-60.72-11.93c6.7,0.88,13.62,0.91,20.63,0
	c44.02-5.66,75.11-45.92,69.46-89.94C306.08,73.44,265.82,42.34,221.8,48C214.08,48.99,206.76,51.05,199.97,54.01z"/>
<path class="st2" d="M218.05,220.94c-0.18,52.06,0.7,90.28,1.35,128.51c0.46,26.92,1.42,53.81,1.7,80.73
	c0.2,18.69-0.5,37.4-0.57,56.11c-0.05,11.03-3.33,19.69-5.01,29.5c-4.9,28.57-10.06,56.98-15.04,85.49
	c-1.86,10.63-4.31,12.21-7.68,3.16c-6.57-17.66-13.65-34.79-21.71-49.32c-9.25-16.67-11.91-39.77-18.16-59.18
	c-2.51-7.81-3.87-17.07-6.4-24.85c-1.9-5.84-2.22-11.61-2.12-17.99c0.69-44.05-1.88-87.93-1.75-131.95
	c0.2-67.14-1.61-134.25-0.94-201.42c0.12-12.3-0.82-24.65-1.33-36.96c-0.2-4.84,0.68-8.14,2.73-11.07
	c11.9-17.06,22.06-37.89,32.23-58.68c1.47-3,2.62-2.22,3.88,0.3c12.43,24.76,21.81,54.31,32.85,81.26
	c4.62,11.28,6.59,23.78,6.28,38.66C217.64,167.02,218.63,200.9,218.05,220.94z"/>
<linearGradient id="SVGID_3_" gradientUnits="userSpaceOnUse" x1="173.6793" y1="317.3447" x2="214.9351" y2="317.3447">
	<stop  offset="0" style="stop-color:#CCE0F4"/>
	<stop  offset="0.0641" style="stop-color:#C3DCF2"/>
	<stop  offset="0.1706" style="stop-color:#A9D2EE"/>
	<stop  offset="0.3066" style="stop-color:#80C2E7"/>
	<stop  offset="0.4649" style="stop-color:#47ACDE"/>
	<stop  offset="0.5674" style="stop-color:#1E9CD7"/>
	<stop  offset="0.8652" style="stop-color:#0075BE"/>
	<stop  offset="0.9944" style="stop-color:#005B97"/>
</linearGradient>
<path class="st3" d="M211.88,144.95c0.79,21.6,0.22,41.59,0.18,61.57c-0.09,43.16,0.45,86.3,1.04,129.45
	c0.56,40.66,2.24,81.25,1.74,121.97c-0.09,7.67,0.17,15.32-0.59,22.95c-0.46,4.6-1.42,7.38-3.99,7.85
	c-8.48,1.57-16.94,1.07-25.42,0.02c-1.78-0.22-2.11-2.53-2.29-5.64c-1.39-23.73-3.13-47.39-4.24-71.16
	c-1.45-30.92-2.8-61.9-3.46-92.91c-0.59-27.7,0.54-55.58-0.88-83.19c-1.1-21.44,1.06-41.47,4.23-61.51
	c0.76-4.79,2.25-6.19,4.63-6.41c6.24-0.57,12.5-0.48,18.69-2.98c2.64-1.07,4.59-1.9,5.55-7.88
	C207.74,152.9,209.3,148.96,211.88,144.95z"/>
<linearGradient id="SVGID_4_" gradientUnits="userSpaceOnUse" x1="145.9965" y1="300.4413" x2="175.1449" y2="300.4413">
	<stop  offset="0" style="stop-color:#CCE0F4"/>
	<stop  offset="0.0641" style="stop-color:#C3DCF2"/>
	<stop  offset="0.1706" style="stop-color:#A9D2EE"/>
	<stop  offset="0.3066" style="stop-color:#80C2E7"/>
	<stop  offset="0.4649" style="stop-color:#47ACDE"/>
	<stop  offset="0.5674" style="stop-color:#1E9CD7"/>
	<stop  offset="0.8652" style="stop-color:#0075BE"/>
	<stop  offset="0.9944" style="stop-color:#005B97"/>
</linearGradient>
<path class="st4" d="M161.04,143.32c-0.14,3.13-0.04,4.9-0.31,6.4c-2.4,13.08-0.86,25.04,3.14,35.59
	c7.46,19.64,7.84,42.61,7.81,65.3c-0.08,51.22,1.78,102.24,2.99,153.33c0.58,24.69,0.87,49.51-0.57,74.2
	c-0.56,9.69-1.65,10.78-5.57,5.23c-3.26-4.61-7.56-6.91-9.17-15.28c-1.14-5.93-1.26-12.33-1.91-18.48
	c-3.78-35.69-4.16-72.04-5.64-108.2c-2.28-55.67-2.16-111.57-4.64-167.22c-0.81-18.04-0.75-36.24-1.05-54.36
	c-0.03-1.8-0.47-4.14,0.58-5.28c1.08-1.18,1.99,0.74,2.47,2.05c2.36,6.36,5.86,9.98,8.87,14.73
	C160.35,134.99,161.5,139.01,161.04,143.32z"/>
<linearGradient id="SVGID_5_" gradientUnits="userSpaceOnUse" x1="168.2266" y1="92.7988" x2="210.1029" y2="92.7988">
	<stop  offset="0" style="stop-color:#CCE0F4"/>
	<stop  offset="0.0641" style="stop-color:#C3DCF2"/>
	<stop  offset="0.1706" style="stop-color:#A9D2EE"/>
	<stop  offset="0.3066" style="stop-color:#80C2E7"/>
	<stop  offset="0.4649" style="stop-color:#47ACDE"/>
	<stop  offset="0.5674" style="stop-color:#1E9CD7"/>
	<stop  offset="0.8652" style="stop-color:#0075BE"/>
	<stop  offset="0.9944" style="stop-color:#005B97"/>
</linearGradient>
<path class="st5" d="M186.38,161.44c-8.11,2.44-10.33-11.2-14.39-20.01c-5.49-11.9-3.67-25.92-2.6-38.99
	c1.99-24.38,4.63-48.57,7.78-72.51c0.3-2.29,0.07-5.74,1.57-6.09c1.28-0.3,1.98,2.59,2.66,4.63c10.54,31.89,19.76,65.22,28.25,99.39
	c1.07,4.32,0.02,7.09-0.73,10.65c-2.5,11.86-5.61,21.27-13.32,19.94C192.51,157.91,189.66,163.17,186.38,161.44z"/>
<linearGradient id="SVGID_6_" gradientUnits="userSpaceOnUse" x1="180.336" y1="544.351" x2="209.8968" y2="544.351">
	<stop  offset="0" style="stop-color:#CCE0F4"/>
	<stop  offset="0.0641" style="stop-color:#C3DCF2"/>
	<stop  offset="0.1706" style="stop-color:#A9D2EE"/>
	<stop  offset="0.3066" style="stop-color:#80C2E7"/>
	<stop  offset="0.4649" style="stop-color:#47ACDE"/>
	<stop  offset="0.5674" style="stop-color:#1E9CD7"/>
	<stop  offset="0.8652" style="stop-color:#0075BE"/>
	<stop  offset="0.9944" style="stop-color:#005B97"/>
</linearGradient>
<path class="st6" d="M190.79,496.67c5.42,0.6,10.83,1.27,16.25,1.8c2.35,0.23,3.26,2.18,2.68,6.89c-2.6,21.05-5.02,42.19-9,62.48
	c-1.36,6.9-2.32,14.1-3.53,21.12c-0.71,4.1-1.82,3.95-2.72,0.38c-4.46-17.66-9.29-35.03-13.1-53.23
	c-2.42-11.57-0.04-23.87,1.55-35.5C183.46,496.68,184.09,496.76,190.79,496.67z"/>
<linearGradient id="SVGID_7_" gradientUnits="userSpaceOnUse" x1="146.1062" y1="83.8981" x2="171.7823" y2="83.8981">
	<stop  offset="0" style="stop-color:#CCE0F4"/>
	<stop  offset="0.0641" style="stop-color:#C3DCF2"/>
	<stop  offset="0.1706" style="stop-color:#A9D2EE"/>
	<stop  offset="0.3066" style="stop-color:#80C2E7"/>
	<stop  offset="0.4649" style="stop-color:#47ACDE"/>
	<stop  offset="0.5674" style="stop-color:#1E9CD7"/>
	<stop  offset="0.8652" style="stop-color:#0075BE"/>
	<stop  offset="0.9944" style="stop-color:#005B97"/>
</linearGradient>
<path class="st7" d="M171.78,41.15c-1.76,15.89-3.49,32.43-5.46,48.87c-1.24,10.37-2.9,20.55-4.28,30.86
	c-0.72,5.32-1.57,8.21-4.3,3.07c-3.05-5.75-6.04-11.59-9.32-16.92c-2.45-3.99-3.25-9.85-0.97-16.11
	c3.47-9.53,6.82-19.15,11.43-26.84C163.28,56.77,167.43,48.92,171.78,41.15z"/>
<linearGradient id="SVGID_8_" gradientUnits="userSpaceOnUse" x1="163.663" y1="167.9942" x2="176.4424" y2="167.9942">
	<stop  offset="0" style="stop-color:#CCE0F4"/>
	<stop  offset="0.0641" style="stop-color:#C3DCF2"/>
	<stop  offset="0.1706" style="stop-color:#A9D2EE"/>
	<stop  offset="0.3066" style="stop-color:#80C2E7"/>
	<stop  offset="0.4649" style="stop-color:#47ACDE"/>
	<stop  offset="0.5674" style="stop-color:#1E9CD7"/>
	<stop  offset="0.8652" style="stop-color:#0075BE"/>
	<stop  offset="0.9944" style="stop-color:#005B97"/>
</linearGradient>
<path class="st8" d="M176.44,167.19c-1.11,9.44-2.06,19.13-3.88,28.35c-0.79,3.97-1.78,3.99-2.73,0.29
	c-4.33-16.77-8.05-33.79-5.12-53.29c0.31-2.05,0.21-4.72,1.65-5.08c1.15-0.28,1.46,1.76,2.05,3.35c1.88,5.08,3.95,9.88,5.99,14.73
	C175.8,158.88,176.1,162.91,176.44,167.19z"/>
<linearGradient id="SVGID_9_" gradientUnits="userSpaceOnUse" x1="160.8649" y1="502.3817" x2="172.6228" y2="502.3817">
	<stop  offset="0" style="stop-color:#CCE0F4"/>
	<stop  offset="0.0641" style="stop-color:#C3DCF2"/>
	<stop  offset="0.1706" style="stop-color:#A9D2EE"/>
	<stop  offset="0.3066" style="stop-color:#80C2E7"/>
	<stop  offset="0.4649" style="stop-color:#47ACDE"/>
	<stop  offset="0.5674" style="stop-color:#1E9CD7"/>
	<stop  offset="0.8652" style="stop-color:#0075BE"/>
	<stop  offset="0.9944" style="stop-color:#005B97"/>
</linearGradient>
<path class="st9" d="M160.86,482.01c8.67,4.63,11.85,15.66,11.74,31.22c-0.03,3.75,0.48,8.15-2.27,9.08
	c-2.71,0.92-5.37,0.97-6.5-5.49C161.88,505.67,161.32,494.09,160.86,482.01z"/>
<linearGradient id="SVGID_10_" gradientUnits="userSpaceOnUse" x1="147.1094" y1="390.734" x2="151.8869" y2="390.734">
	<stop  offset="0" style="stop-color:#CCE0F4"/>
	<stop  offset="0.0641" style="stop-color:#C3DCF2"/>
	<stop  offset="0.1706" style="stop-color:#A9D2EE"/>
	<stop  offset="0.3066" style="stop-color:#80C2E7"/>
	<stop  offset="0.4649" style="stop-color:#47ACDE"/>
	<stop  offset="0.5674" style="stop-color:#1E9CD7"/>
	<stop  offset="0.8652" style="stop-color:#0075BE"/>
	<stop  offset="0.9944" style="stop-color:#005B97"/>
</linearGradient>
<path class="st10" d="M148.39,322.03c1.07,42.22,2.18,84.43,3.15,126.66c0.08,3.71,1.22,10.46-1.15,10.75
	c-3.23,0.38-1.9-6.6-1.98-10.42c-0.38-16.46-0.53-32.94-0.77-49.41c-0.92-11.75-0.25-23.56-0.37-35.35
	c-0.13-12.1-0.07-24.22,0.02-36.33C147.3,325.92,146.44,322.8,148.39,322.03z"/>
<linearGradient id="SVGID_11_" gradientUnits="userSpaceOnUse" x1="145.0525" y1="316.9273" x2="148.3946" y2="316.9273">
	<stop  offset="0" style="stop-color:#CCE0F4"/>
	<stop  offset="0.0641" style="stop-color:#C3DCF2"/>
	<stop  offset="0.1706" style="stop-color:#A9D2EE"/>
	<stop  offset="0.3066" style="stop-color:#80C2E7"/>
	<stop  offset="0.4649" style="stop-color:#47ACDE"/>
	<stop  offset="0.5674" style="stop-color:#1E9CD7"/>
	<stop  offset="0.8652" style="stop-color:#0075BE"/>
	<stop  offset="0.9944" style="stop-color:#005B97"/>
</linearGradient>
<path class="st11" d="M148.39,322.03c-1.39,6.28-0.68,12.93-0.73,19.38c-0.13,19.39-0.04,38.8-0.03,58.19
	c-1.08-4.71-0.62-9.78-0.6-14.58c0.17-44.78-1.23-89.46-1.94-134.18c-0.09-5.66-0.28-11.42,2.04-16.59
	C147.56,263.51,147.98,292.77,148.39,322.03z"/>
<linearGradient id="SVGID_12_" gradientUnits="userSpaceOnUse" x1="202.6649" y1="102.6267" x2="213.5434" y2="102.6267">
	<stop  offset="0" style="stop-color:#CCE0F4"/>
	<stop  offset="0.0641" style="stop-color:#C3DCF2"/>
	<stop  offset="0.1706" style="stop-color:#A9D2EE"/>
	<stop  offset="0.3066" style="stop-color:#80C2E7"/>
	<stop  offset="0.4649" style="stop-color:#47ACDE"/>
	<stop  offset="0.5674" style="stop-color:#1E9CD7"/>
	<stop  offset="0.8652" style="stop-color:#0075BE"/>
	<stop  offset="0.9944" style="stop-color:#005B97"/>
</linearGradient>
<path class="st12" d="M203.7,83.95c3.66,7.55,5.79,17.19,8.91,25.46c1.46,3.87,1.1,7.35-0.29,11.95
	c-3.01-12.69-7.46-22.8-9.59-35.47C202.51,84.19,202.91,83.71,203.7,83.95z"/>
<linearGradient id="SVGID_13_" gradientUnits="userSpaceOnUse" x1="215.5147" y1="345.2076" x2="217.1959" y2="345.2076">
	<stop  offset="0" style="stop-color:#CCE0F4"/>
	<stop  offset="0.0641" style="stop-color:#C3DCF2"/>
	<stop  offset="0.1706" style="stop-color:#A9D2EE"/>
	<stop  offset="0.3066" style="stop-color:#80C2E7"/>
	<stop  offset="0.4649" style="stop-color:#47ACDE"/>
	<stop  offset="0.5674" style="stop-color:#1E9CD7"/>
	<stop  offset="0.8652" style="stop-color:#0075BE"/>
	<stop  offset="0.9944" style="stop-color:#005B97"/>
</linearGradient>
<path class="st13" d="M215.51,318.52c1.87,17.65,2.27,35.47,0.74,53.37C215.08,354.19,216,336.36,215.51,318.52z"/>
<linearGradient id="SVGID_14_" gradientUnits="userSpaceOnUse" x1="175.1642" y1="555.5188" x2="184.9413" y2="555.5188">
	<stop  offset="0" style="stop-color:#CCE0F4"/>
	<stop  offset="0.0641" style="stop-color:#C3DCF2"/>
	<stop  offset="0.1706" style="stop-color:#A9D2EE"/>
	<stop  offset="0.3066" style="stop-color:#80C2E7"/>
	<stop  offset="0.4649" style="stop-color:#47ACDE"/>
	<stop  offset="0.5674" style="stop-color:#1E9CD7"/>
	<stop  offset="0.8652" style="stop-color:#0075BE"/>
	<stop  offset="0.9944" style="stop-color:#005B97"/>
</linearGradient>
<path class="st14" d="M184.94,570.5c-4.44-8.5-6.95-19.44-9.78-29.97C180.59,547.79,182.34,559.69,184.94,570.5z"/>
<linearGradient id="SVGID_15_" gradientUnits="userSpaceOnUse" x1="150.0085" y1="484.8802" x2="156.7517" y2="484.8802">
	<stop  offset="0" style="stop-color:#CCE0F4"/>
	<stop  offset="0.0641" style="stop-color:#C3DCF2"/>
	<stop  offset="0.1706" style="stop-color:#A9D2EE"/>
	<stop  offset="0.3066" style="stop-color:#80C2E7"/>
	<stop  offset="0.4649" style="stop-color:#47ACDE"/>
	<stop  offset="0.5674" style="stop-color:#1E9CD7"/>
	<stop  offset="0.8652" style="stop-color:#0075BE"/>
	<stop  offset="0.9944" style="stop-color:#005B97"/>
</linearGradient>
<path class="st15" d="M156.74,499.69c-2.17-8.44-4.35-16.86-6.47-25.34c-0.37-1.47-0.47-3.41,0.51-4.2
	c0.36-0.29,1.27,0.37,1.41,1.01C154.05,480.36,156.92,488.89,156.74,499.69z"/>
<linearGradient id="SVGID_16_" gradientUnits="userSpaceOnUse" x1="197.5067" y1="76.6609" x2="203.6963" y2="76.6609">
	<stop  offset="0" style="stop-color:#CCE0F4"/>
	<stop  offset="0.0641" style="stop-color:#C3DCF2"/>
	<stop  offset="0.1706" style="stop-color:#A9D2EE"/>
	<stop  offset="0.3066" style="stop-color:#80C2E7"/>
	<stop  offset="0.4649" style="stop-color:#47ACDE"/>
	<stop  offset="0.5674" style="stop-color:#1E9CD7"/>
	<stop  offset="0.8652" style="stop-color:#0075BE"/>
	<stop  offset="0.9944" style="stop-color:#005B97"/>
</linearGradient>
<path class="st16" d="M203.7,83.95c-0.32,0.65-0.65,1.29-0.97,1.94c-2.76-4.97-3.29-12.47-5.22-18.47
	C200.63,71.37,202.57,77.05,203.7,83.95z"/>
<linearGradient id="SVGID_17_" gradientUnits="userSpaceOnUse" x1="153.232" y1="451.6689" x2="156.0298" y2="451.6689">
	<stop  offset="0" style="stop-color:#CCE0F4"/>
	<stop  offset="0.0641" style="stop-color:#C3DCF2"/>
	<stop  offset="0.1706" style="stop-color:#A9D2EE"/>
	<stop  offset="0.3066" style="stop-color:#80C2E7"/>
	<stop  offset="0.4649" style="stop-color:#47ACDE"/>
	<stop  offset="0.5674" style="stop-color:#1E9CD7"/>
	<stop  offset="0.8652" style="stop-color:#0075BE"/>
	<stop  offset="0.9944" style="stop-color:#005B97"/>
</linearGradient>
<path class="st17" d="M153.62,440.95c2.29,6.5,1.43,13.2,2.37,19c0.15,0.91-0.12,2.19-0.82,2.4c-0.91,0.27-1.3-1.11-1.43-2.36
	C153.11,454.11,153.06,448.19,153.62,440.95z"/>
<linearGradient id="SVGID_18_" gradientUnits="userSpaceOnUse" x1="155.5596" y1="478.3863" x2="158.5341" y2="478.3863">
	<stop  offset="0" style="stop-color:#CCE0F4"/>
	<stop  offset="0.0641" style="stop-color:#C3DCF2"/>
	<stop  offset="0.1706" style="stop-color:#A9D2EE"/>
	<stop  offset="0.3066" style="stop-color:#80C2E7"/>
	<stop  offset="0.4649" style="stop-color:#47ACDE"/>
	<stop  offset="0.5674" style="stop-color:#1E9CD7"/>
	<stop  offset="0.8652" style="stop-color:#0075BE"/>
	<stop  offset="0.9944" style="stop-color:#005B97"/>
</linearGradient>
<path class="st18" d="M155.67,471.33c1.56,4.13,3.45,7.9,2.7,14.11C155.73,481.57,155.32,476.65,155.67,471.33z"/>
<linearGradient id="SVGID_19_" gradientUnits="userSpaceOnUse" x1="145.3115" y1="77.2327" x2="149.9634" y2="77.2327">
	<stop  offset="0" style="stop-color:#CCE0F4"/>
	<stop  offset="0.0641" style="stop-color:#C3DCF2"/>
	<stop  offset="0.1706" style="stop-color:#A9D2EE"/>
	<stop  offset="0.3066" style="stop-color:#80C2E7"/>
	<stop  offset="0.4649" style="stop-color:#47ACDE"/>
	<stop  offset="0.5674" style="stop-color:#1E9CD7"/>
	<stop  offset="0.8652" style="stop-color:#0075BE"/>
	<stop  offset="0.9944" style="stop-color:#005B97"/>
</linearGradient>
<path class="st19" d="M149.96,72.3c-1.15,4.56-1.61,9.01-4.65,9.86C145.74,76.67,146.99,73.62,149.96,72.3z"/>
<linearGradient id="SVGID_20_" gradientUnits="userSpaceOnUse" x1="176.6869" y1="501.4181" x2="179.1685" y2="501.4181">
	<stop  offset="0" style="stop-color:#CCE0F4"/>
	<stop  offset="0.0641" style="stop-color:#C3DCF2"/>
	<stop  offset="0.1706" style="stop-color:#A9D2EE"/>
	<stop  offset="0.3066" style="stop-color:#80C2E7"/>
	<stop  offset="0.4649" style="stop-color:#47ACDE"/>
	<stop  offset="0.5674" style="stop-color:#1E9CD7"/>
	<stop  offset="0.8652" style="stop-color:#0075BE"/>
	<stop  offset="0.9944" style="stop-color:#005B97"/>
</linearGradient>
<path class="st20" d="M178.06,505.97c-1.37-2.84-1.86-5.74-0.8-8.78c0.16-0.45,1.24-0.43,1.41,0.05
	C179.79,500.37,178.76,503.14,178.06,505.97z"/>
<linearGradient id="SVGID_21_" gradientUnits="userSpaceOnUse" x1="175.3608" y1="487.1761" x2="177.9837" y2="487.1761">
	<stop  offset="0" style="stop-color:#CCE0F4"/>
	<stop  offset="0.0641" style="stop-color:#C3DCF2"/>
	<stop  offset="0.1706" style="stop-color:#A9D2EE"/>
	<stop  offset="0.3066" style="stop-color:#80C2E7"/>
	<stop  offset="0.4649" style="stop-color:#47ACDE"/>
	<stop  offset="0.5674" style="stop-color:#1E9CD7"/>
	<stop  offset="0.8652" style="stop-color:#0075BE"/>
	<stop  offset="0.9944" style="stop-color:#005B97"/>
</linearGradient>
<path class="st21" d="M177.98,485.9c0.02,3.39-0.4,4.38-1.2,4.26c-0.95-0.13-1.43-1.38-1.42-3.25c0.01-1.51,0.41-2.97,1.15-2.7
	C177.24,484.48,177.87,485.76,177.98,485.9z"/>
<linearGradient id="SVGID_22_" gradientUnits="userSpaceOnUse" x1="214.5578" y1="301.2464" x2="216.1926" y2="301.2464">
	<stop  offset="0" style="stop-color:#CCE0F4"/>
	<stop  offset="0.0641" style="stop-color:#C3DCF2"/>
	<stop  offset="0.1706" style="stop-color:#A9D2EE"/>
	<stop  offset="0.3066" style="stop-color:#80C2E7"/>
	<stop  offset="0.4649" style="stop-color:#47ACDE"/>
	<stop  offset="0.5674" style="stop-color:#1E9CD7"/>
	<stop  offset="0.8652" style="stop-color:#0075BE"/>
	<stop  offset="0.9944" style="stop-color:#005B97"/>
</linearGradient>
<path class="st22" d="M215.25,296.5c1.54,4.03,0.97,6.4-0.16,9.5C214.35,302.73,214.36,300.29,215.25,296.5z"/>
<g>
	<linearGradient id="SVGID_23_" gradientUnits="userSpaceOnUse" x1="227.1871" y1="443.3336" x2="227.1871" y2="443.3336">
		<stop  offset="0" style="stop-color:#CCE0F4"/>
		<stop  offset="0.0641" style="stop-color:#C3DCF2"/>
		<stop  offset="0.1706" style="stop-color:#A9D2EE"/>
		<stop  offset="0.3066" style="stop-color:#80C2E7"/>
		<stop  offset="0.4649" style="stop-color:#47ACDE"/>
		<stop  offset="0.5674" style="stop-color:#1E9CD7"/>
		<stop  offset="0.8652" style="stop-color:#0075BE"/>
		<stop  offset="0.9944" style="stop-color:#005B97"/>
	</linearGradient>
	<line class="st23" x1="227.19" y1="443.34" x2="227.19" y2="443.33"/>
	<linearGradient id="SVGID_24_" gradientUnits="userSpaceOnUse" x1="326.6453" y1="312.9599" x2="326.6531" y2="312.9599">
		<stop  offset="0" style="stop-color:#CCE0F4"/>
		<stop  offset="0.0641" style="stop-color:#C3DCF2"/>
		<stop  offset="0.1706" style="stop-color:#A9D2EE"/>
		<stop  offset="0.3066" style="stop-color:#80C2E7"/>
		<stop  offset="0.4649" style="stop-color:#47ACDE"/>
		<stop  offset="0.5674" style="stop-color:#1E9CD7"/>
		<stop  offset="0.8652" style="stop-color:#0075BE"/>
		<stop  offset="0.9944" style="stop-color:#005B97"/>
	</linearGradient>
	<line class="st24" x1="326.65" y1="312.96" x2="326.65" y2="312.96"/>
	<linearGradient id="SVGID_25_" gradientUnits="userSpaceOnUse" x1="222.0984" y1="328.3764" x2="326.6453" y2="328.3764">
		<stop  offset="0" style="stop-color:#CCE0F4"/>
		<stop  offset="0.0641" style="stop-color:#C3DCF2"/>
		<stop  offset="0.1706" style="stop-color:#A9D2EE"/>
		<stop  offset="0.3066" style="stop-color:#80C2E7"/>
		<stop  offset="0.4649" style="stop-color:#47ACDE"/>
		<stop  offset="0.5674" style="stop-color:#1E9CD7"/>
		<stop  offset="0.8652" style="stop-color:#0075BE"/>
		<stop  offset="0.9944" style="stop-color:#005B97"/>
	</linearGradient>
	<path class="st25" d="M326.65,312.96c-6.94-10.71-18.08-17.93-31.06-18.69c-23-1.34-43.06,18.13-44.8,43.48
		c-1.48,21.56,10.74,40.42,28.57,46.42c-2.6,0.26-5.25,0.31-7.93,0.16c-29.29-1.71-51.31-28.14-49.18-59.04
		c2.13-30.9,27.59-54.57,56.88-52.87C302.32,273.77,320.96,290.64,326.65,312.96z"/>
	<linearGradient id="SVGID_26_" gradientUnits="userSpaceOnUse" x1="227.1871" y1="440.2276" x2="333.4953" y2="440.2276">
		<stop  offset="0" style="stop-color:#CCE0F4"/>
		<stop  offset="0.0641" style="stop-color:#C3DCF2"/>
		<stop  offset="0.1706" style="stop-color:#A9D2EE"/>
		<stop  offset="0.3066" style="stop-color:#80C2E7"/>
		<stop  offset="0.4649" style="stop-color:#47ACDE"/>
		<stop  offset="0.5674" style="stop-color:#1E9CD7"/>
		<stop  offset="0.8652" style="stop-color:#0075BE"/>
		<stop  offset="0.9944" style="stop-color:#005B97"/>
	</linearGradient>
	<path class="st26" d="M333.35,443.32c-2.13,30.9-27.59,54.57-56.88,52.87c-27.3-1.58-48.29-24.67-49.29-52.84
		c4.96,17.33,19.15,30.21,36.73,31.23c23,1.34,43.06-18.14,44.8-43.49c1.52-22.09-11.35-41.35-29.9-46.83
		c1.76-0.09,3.55-0.07,5.35,0.03C313.45,385.98,335.48,412.41,333.35,443.32z"/>
	<linearGradient id="SVGID_27_" gradientUnits="userSpaceOnUse" x1="227.1871" y1="443.3336" x2="227.1871" y2="443.3336">
		<stop  offset="0" style="stop-color:#CCE0F4"/>
		<stop  offset="0.0641" style="stop-color:#C3DCF2"/>
		<stop  offset="0.1706" style="stop-color:#A9D2EE"/>
		<stop  offset="0.3066" style="stop-color:#80C2E7"/>
		<stop  offset="0.4649" style="stop-color:#47ACDE"/>
		<stop  offset="0.5674" style="stop-color:#1E9CD7"/>
		<stop  offset="0.8652" style="stop-color:#0075BE"/>
		<stop  offset="0.9944" style="stop-color:#005B97"/>
	</linearGradient>
	<line class="st27" x1="227.19" y1="443.34" x2="227.19" y2="443.33"/>
</g>
<path class="st28" d="M286.96,132.82c-0.99-1.05-1.53-1.83-2.25-2.36c-2.21-1.66-4.73-2.98-6.7-4.87
	c-4.13-3.96-6.65-8.93-8.11-14.47c-2.05-7.77-4.49-15.47-4.25-23.64c0.06-2.15,0.1-4.3,0.16-6.45c0.04-1.59-0.38-3.2-2.06-3.36
	c-1.69-0.16-1.8,1.59-2.05,2.86c-1.04,5.31-2.04,10.62-3.1,15.93c-1.49,7.46-4.66,13.96-10.61,18.99
	c-3.75,3.17-7.65,5.94-12.36,7.49c-1.64,0.54-3.24,1.26-4.77,2.06c-0.59,0.31-1.42,1.16-1.32,1.56c0.15,0.63,0.91,1.35,1.58,1.59
	c8.76,3.19,13.89,9.92,16.31,18.36c1.6,5.57,1.48,11.64,2.05,17.49c0.25,2.55,0.2,5.14,0.55,7.67c0.11,0.82,1.05,1.52,1.6,2.28
	c0.75-0.68,1.98-1.23,2.19-2.05c1.57-6.15,3.95-11.98,6.72-17.66c2.74-5.62,5.78-10.98,11.14-14.72c3.85-2.68,8.14-4.09,12.52-5.42
	C284.98,133.86,285.71,133.41,286.96,132.82z"/>
<linearGradient id="SVGID_28_" gradientUnits="userSpaceOnUse" x1="204.2589" y1="168.5067" x2="262.0406" y2="168.5067" gradientTransform="matrix(0.9914 0.1312 -0.1312 0.9914 49.6897 -71.6814)">
	<stop  offset="0" style="stop-color:#CCE0F4"/>
	<stop  offset="0.0641" style="stop-color:#C3DCF2"/>
	<stop  offset="0.1706" style="stop-color:#A9D2EE"/>
	<stop  offset="0.3066" style="stop-color:#80C2E7"/>
	<stop  offset="0.4649" style="stop-color:#47ACDE"/>
	<stop  offset="0.5674" style="stop-color:#1E9CD7"/>
	<stop  offset="0.8652" style="stop-color:#0075BE"/>
	<stop  offset="0.9944" style="stop-color:#005B97"/>
</linearGradient>
<path class="st29" d="M286.96,132.82c-1.25,0.59-1.98,1.04-2.77,1.28c-4.38,1.33-8.67,2.74-12.52,5.42
	c-5.36,3.74-8.41,9.1-11.14,14.72c-2.77,5.68-5.15,11.51-6.72,17.66c-0.21,0.82-1.43,1.37-2.19,2.05c-0.56-0.76-1.49-1.46-1.6-2.28
	c-0.35-2.54-0.3-5.12-0.55-7.67c-0.58-5.85-0.46-11.92-2.05-17.49c-2.42-8.44-7.55-15.17-16.31-18.36
	c-0.66-0.24-1.42-0.96-1.58-1.59c-0.1-0.4,0.73-1.26,1.32-1.56c1.54-0.79,3.13-1.52,4.77-2.06c4.71-1.55,8.62-4.33,12.36-7.49
	c5.95-5.03,9.12-11.53,10.61-18.99c1.06-5.3,2.06-10.62,3.1-15.93c0.25-1.27,0.35-3.02,2.05-2.86c1.69,0.16,2.11,1.77,2.06,3.36
	c-0.06,2.15-0.09,4.3-0.16,6.45c-0.24,8.18,2.2,15.87,4.25,23.64c1.46,5.54,3.99,10.5,8.11,14.47c1.97,1.89,4.48,3.22,6.7,4.87
	C285.43,131,285.97,131.77,286.96,132.82z M262.75,97.95c-0.65,0.67-1.18,1-1.42,1.48c-0.61,1.24-1.19,2.51-1.62,3.83
	c-2.82,8.68-8.48,14.94-16.3,19.41c-1.68,0.96-3.35,1.96-5.01,2.96c-1.17,0.71-1.32,1.5-0.19,2.43c1.12,0.93,2.24,1.87,3.27,2.9
	c4.99,5,8.9,10.63,9.81,17.85c0.4,3.16,0.52,6.35,0.87,9.52c0.08,0.75,0.55,1.45,0.84,2.18c0.7-0.56,1.68-0.98,2.06-1.71
	c2.28-4.36,4.36-8.82,6.65-13.17c0.86-1.63,2.03-3.15,3.26-4.54c3.27-3.72,7.58-5.95,11.99-8.02c2.03-0.95,2.23-1.75,0.71-3.39
	c-0.42-0.46-0.92-0.85-1.35-1.3c-5.03-5.26-8.74-11.2-10.04-18.51c-0.58-3.27-1.51-6.48-2.35-9.69
	C263.76,99.53,263.28,98.93,262.75,97.95z"/>
<path class="st28" d="M262.75,97.95c0.53,0.98,1.01,1.57,1.19,2.25c0.84,3.22,1.77,6.42,2.35,9.69c1.29,7.31,5,13.25,10.04,18.51
	c0.43,0.45,0.92,0.84,1.35,1.3c1.51,1.64,1.32,2.44-0.71,3.39c-4.4,2.06-8.71,4.3-11.99,8.02c-1.23,1.39-2.39,2.91-3.26,4.54
	c-2.3,4.35-4.37,8.81-6.65,13.17c-0.38,0.73-1.36,1.15-2.06,1.71c-0.29-0.73-0.76-1.43-0.84-2.18c-0.34-3.17-0.47-6.36-0.87-9.52
	c-0.92-7.22-4.83-12.85-9.81-17.85c-1.03-1.03-2.15-1.97-3.27-2.9c-1.13-0.94-0.98-1.73,0.19-2.43c1.66-1,3.33-2,5.01-2.96
	c7.82-4.48,13.48-10.74,16.3-19.41c0.43-1.31,1.01-2.59,1.62-3.83C261.57,98.96,262.09,98.62,262.75,97.95z"/>
<path class="st28" d="M123.64,257.1c-0.97-0.5-1.55-0.9-2.19-1.1c-1.99-0.61-4.11-0.91-5.99-1.75c-3.94-1.76-6.99-4.64-9.44-8.19
	c-3.43-4.99-7.12-9.82-9.03-15.68c-0.5-1.54-1.02-3.07-1.53-4.61c-0.37-1.14-1.08-2.17-2.32-1.85c-1.24,0.32-0.87,1.58-0.72,2.55
	c0.61,4.03,1.26,8.05,1.86,12.08c0.84,5.67,0.25,11.09-2.69,16.17c-1.85,3.2-3.91,6.16-6.86,8.46c-1.03,0.8-1.98,1.72-2.86,2.67
	c-0.34,0.37-0.71,1.18-0.54,1.45c0.27,0.41,0.99,0.72,1.52,0.73c7.02,0.03,12.38,3.5,16.24,8.87c2.55,3.54,4.01,7.88,5.91,11.88
	c0.83,1.75,1.45,3.59,2.34,5.3c0.29,0.55,1.13,0.81,1.72,1.21c0.36-0.67,1.09-1.38,1.03-2.01c-0.45-4.76-0.25-9.5,0.27-14.23
	c0.51-4.68,1.3-9.26,4.16-13.27c2.05-2.88,4.73-4.97,7.5-7.03C122.5,258.34,122.91,257.83,123.64,257.1z"/>
<linearGradient id="SVGID_29_" gradientUnits="userSpaceOnUse" x1="137.0787" y1="202.1425" x2="180.6134" y2="202.1425" gradientTransform="matrix(0.9774 -0.2115 0.2115 0.9774 -96.1347 95.4427)">
	<stop  offset="0" style="stop-color:#CCE0F4"/>
	<stop  offset="0.0641" style="stop-color:#C3DCF2"/>
	<stop  offset="0.1706" style="stop-color:#A9D2EE"/>
	<stop  offset="0.3066" style="stop-color:#80C2E7"/>
	<stop  offset="0.4649" style="stop-color:#47ACDE"/>
	<stop  offset="0.5674" style="stop-color:#1E9CD7"/>
	<stop  offset="0.8652" style="stop-color:#0075BE"/>
	<stop  offset="0.9944" style="stop-color:#005B97"/>
</linearGradient>
<path class="st30" d="M123.64,257.1c-0.74,0.73-1.14,1.24-1.64,1.61c-2.77,2.06-5.45,4.15-7.5,7.03c-2.85,4.02-3.65,8.59-4.16,13.27
	c-0.52,4.73-0.72,9.47-0.27,14.23c0.06,0.63-0.67,1.34-1.03,2.01c-0.59-0.39-1.43-0.66-1.72-1.21c-0.89-1.71-1.51-3.56-2.34-5.3
	c-1.9-4-3.36-8.34-5.91-11.88c-3.86-5.37-9.22-8.83-16.24-8.87c-0.53,0-1.25-0.32-1.52-0.73c-0.17-0.26,0.2-1.08,0.54-1.45
	c0.89-0.95,1.84-1.87,2.86-2.67c2.95-2.3,5.01-5.26,6.86-8.46c2.94-5.08,3.53-10.49,2.69-16.17c-0.6-4.03-1.24-8.06-1.86-12.08
	c-0.15-0.96-0.52-2.23,0.72-2.55c1.24-0.31,1.95,0.72,2.32,1.85c0.51,1.54,1.03,3.07,1.53,4.61c1.91,5.86,5.6,10.7,9.03,15.68
	c2.45,3.56,5.5,6.43,9.44,8.19c1.88,0.84,4,1.14,5.99,1.75C122.09,256.19,122.67,256.6,123.64,257.1z M97.6,238.53
	c-0.29,0.64-0.58,1.01-0.63,1.41c-0.12,1.04-0.21,2.09-0.17,3.13c0.21,6.87-2.21,12.75-6.62,17.92c-0.95,1.11-1.88,2.24-2.8,3.38
	c-0.65,0.8-0.56,1.4,0.48,1.77c1.03,0.37,2.07,0.76,3.06,1.23c4.81,2.28,9.02,5.27,11.5,10.16c1.09,2.14,1.99,4.37,3.04,6.53
	c0.25,0.51,0.76,0.89,1.15,1.33c0.36-0.58,0.94-1.12,1.03-1.74c0.51-3.67,0.84-7.36,1.37-11.03c0.2-1.38,0.64-2.75,1.15-4.05
	c1.37-3.47,3.86-6.15,6.46-8.74c1.2-1.19,1.14-1.81-0.36-2.58c-0.42-0.22-0.87-0.37-1.29-0.58c-4.91-2.45-9.05-5.72-11.83-10.57
	c-1.24-2.17-2.72-4.21-4.14-6.27C98.72,239.39,98.23,239.09,97.6,238.53z"/>
<path class="st28" d="M97.6,238.53c0.63,0.56,1.12,0.86,1.42,1.29c1.42,2.07,2.89,4.1,4.14,6.27c2.78,4.86,6.92,8.13,11.83,10.57
	c0.42,0.21,0.87,0.36,1.29,0.58c1.49,0.78,1.55,1.39,0.36,2.58c-2.6,2.58-5.09,5.27-6.46,8.74c-0.51,1.3-0.96,2.67-1.15,4.05
	c-0.52,3.67-0.86,7.36-1.37,11.03c-0.09,0.62-0.67,1.16-1.03,1.74c-0.39-0.44-0.9-0.82-1.15-1.33c-1.05-2.16-1.95-4.39-3.04-6.53
	c-2.49-4.89-6.69-7.88-11.5-10.16c-0.99-0.47-2.02-0.85-3.06-1.23c-1.04-0.38-1.14-0.97-0.48-1.77c0.92-1.13,1.85-2.27,2.8-3.38
	c4.4-5.16,6.83-11.05,6.62-17.92c-0.03-1.04,0.06-2.09,0.17-3.13C97.02,239.55,97.31,239.17,97.6,238.53z"/>
<path class="st31" d="M286.38,435.48c-0.51-0.68-0.78-1.17-1.17-1.54c-1.2-1.12-2.59-2.06-3.63-3.3c-2.18-2.6-3.34-5.69-3.85-9.05
	c-0.71-4.71-1.65-9.4-0.99-14.21c0.17-1.26,0.33-2.53,0.51-3.79c0.13-0.93-0.02-1.91-1-2.11c-0.99-0.2-1.16,0.82-1.39,1.55
	c-0.96,3.06-1.89,6.13-2.85,9.19c-1.36,4.3-3.64,7.93-7.47,10.51c-2.41,1.62-4.89,3.01-7.76,3.62c-1,0.21-1.99,0.53-2.95,0.9
	c-0.37,0.14-0.91,0.59-0.88,0.84c0.05,0.38,0.45,0.85,0.83,1.04c4.96,2.44,7.55,6.74,8.43,11.87c0.58,3.38,0.12,6.95,0.09,10.44
	c-0.02,1.52-0.21,3.04-0.17,4.56c0.01,0.49,0.52,0.96,0.8,1.45c0.49-0.35,1.24-0.6,1.42-1.07c1.32-3.52,3.1-6.81,5.09-9.97
	c1.97-3.14,4.11-6.1,7.51-7.96c2.44-1.33,5.06-1.89,7.73-2.39C285.14,435.96,285.6,435.74,286.38,435.48z"/>
<linearGradient id="SVGID_30_" gradientUnits="userSpaceOnUse" x1="252.9334" y1="429.454" x2="286.376" y2="429.454">
	<stop  offset="0" style="stop-color:#CCE0F4"/>
	<stop  offset="0.0641" style="stop-color:#C3DCF2"/>
	<stop  offset="0.1706" style="stop-color:#A9D2EE"/>
	<stop  offset="0.3066" style="stop-color:#80C2E7"/>
	<stop  offset="0.4649" style="stop-color:#47ACDE"/>
	<stop  offset="0.5674" style="stop-color:#1E9CD7"/>
	<stop  offset="0.8652" style="stop-color:#0075BE"/>
	<stop  offset="0.9944" style="stop-color:#005B97"/>
</linearGradient>
<path class="st32" d="M286.38,435.48c-0.77,0.26-1.23,0.49-1.72,0.58c-2.67,0.5-5.28,1.06-7.73,2.39c-3.4,1.86-5.54,4.82-7.51,7.96
	c-1.99,3.17-3.77,6.45-5.09,9.97c-0.18,0.47-0.93,0.72-1.42,1.07c-0.28-0.48-0.79-0.96-0.8-1.45c-0.04-1.52,0.15-3.04,0.17-4.56
	c0.04-3.49,0.5-7.05-0.09-10.44c-0.88-5.13-3.47-9.42-8.43-11.87c-0.38-0.19-0.78-0.66-0.83-1.04c-0.03-0.24,0.51-0.69,0.88-0.84
	c0.96-0.37,1.94-0.69,2.95-0.9c2.88-0.61,5.35-2,7.76-3.62c3.83-2.58,6.11-6.2,7.47-10.51c0.97-3.06,1.9-6.13,2.85-9.19
	c0.23-0.73,0.4-1.76,1.39-1.55c0.98,0.2,1.13,1.18,1,2.11c-0.17,1.26-0.33,2.53-0.51,3.79c-0.66,4.8,0.28,9.49,0.99,14.21
	c0.51,3.36,1.67,6.45,3.85,9.05c1.04,1.24,2.44,2.18,3.63,3.3C285.59,434.31,285.86,434.79,286.38,435.48z M274.35,413.38
	c-0.43,0.35-0.76,0.52-0.93,0.78c-0.44,0.69-0.86,1.4-1.2,2.15c-2.22,4.93-5.96,8.26-10.85,10.39c-1.05,0.46-2.1,0.94-3.15,1.42
	c-0.74,0.34-0.87,0.8-0.27,1.42c0.6,0.62,1.2,1.25,1.74,1.92c2.62,3.27,4.56,6.84,4.64,11.15c0.03,1.89-0.1,3.78-0.1,5.67
	c0,0.45,0.23,0.89,0.35,1.34c0.45-0.29,1.05-0.47,1.33-0.88c1.62-2.42,3.13-4.92,4.77-7.33c0.61-0.91,1.4-1.72,2.21-2.47
	c2.17-1.98,4.85-3.02,7.58-3.95c1.26-0.43,1.43-0.89,0.64-1.95c-0.22-0.3-0.48-0.56-0.71-0.85c-2.63-3.42-4.43-7.16-4.72-11.55
	c-0.13-1.96-0.47-3.91-0.76-5.86C274.85,414.37,274.6,413.99,274.35,413.38z"/>
<path class="st31" d="M274.35,413.38c0.25,0.61,0.5,0.99,0.56,1.4c0.29,1.95,0.63,3.9,0.76,5.86c0.29,4.39,2.1,8.13,4.72,11.55
	c0.23,0.29,0.49,0.56,0.71,0.85c0.79,1.07,0.62,1.52-0.64,1.95c-2.73,0.93-5.41,1.97-7.58,3.95c-0.81,0.74-1.6,1.56-2.21,2.47
	c-1.63,2.41-3.14,4.91-4.77,7.33c-0.27,0.41-0.88,0.59-1.33,0.88c-0.12-0.45-0.35-0.89-0.35-1.34c0-1.89,0.13-3.78,0.1-5.67
	c-0.08-4.31-2.02-7.88-4.64-11.15c-0.54-0.67-1.14-1.3-1.74-1.92c-0.61-0.63-0.47-1.08,0.27-1.42c1.04-0.48,2.09-0.96,3.15-1.42
	c4.89-2.13,8.64-5.46,10.85-10.39c0.34-0.75,0.76-1.46,1.2-2.15C273.59,413.89,273.92,413.73,274.35,413.38z"/>
</svg>
