<?xml version="1.0" encoding="utf-8"?>
<!-- Generator: Adobe Illustrator 25.2.3, SVG Export Plug-In . SVG Version: 6.00 Build 0)  -->
<svg version="1.1" id="Layer_1" xmlns="http://www.w3.org/2000/svg" xmlns:xlink="http://www.w3.org/1999/xlink" x="0px" y="0px"
	 viewBox="0 0 372 604" style="enable-background:new 0 0 372 604;" xml:space="preserve">
<style type="text/css">
	.st0{fill:#E6E6E6;stroke:#999999;stroke-width:3;stroke-miterlimit:10;}
	.st1{fill:#808080;stroke:#B3B3B3;stroke-miterlimit:10;}
	.st2{opacity:0.9;fill:#F2F2F2;stroke:#FFFFFF;stroke-miterlimit:10;}
	.st3{opacity:0.75;fill:#E6E6E6;stroke:#F2F2F2;stroke-miterlimit:10;}
	.st4{fill:#E6E6E6;stroke:#F2F2F2;stroke-miterlimit:10;}
	.st5{opacity:0.8;fill:#E6E6E6;stroke:#F2F2F2;stroke-miterlimit:10;}
	.st6{fill:#CCCCCC;stroke:#F2F2F2;stroke-miterlimit:10;}
	.st7{fill:url(#SVGID_1_);stroke:#F2F2F2;stroke-miterlimit:10;}
	.st8{fill:url(#SVGID_2_);stroke:#F2F2F2;stroke-miterlimit:10;}
	.st9{fill:url(#SVGID_3_);stroke:#F2F2F2;stroke-miterlimit:10;}
	.st10{fill:url(#SVGID_4_);stroke:#F2F2F2;stroke-miterlimit:10;}
	.st11{fill:url(#SVGID_5_);stroke:#F2F2F2;stroke-miterlimit:10;}
	.st12{fill:url(#SVGID_6_);stroke:#F2F2F2;stroke-miterlimit:10;}
	.st13{fill:url(#SVGID_7_);stroke:#F2F2F2;stroke-miterlimit:10;}
	.st14{fill:url(#SVGID_8_);stroke:#F2F2F2;stroke-miterlimit:10;}
	.st15{fill:url(#SVGID_9_);stroke:#F2F2F2;stroke-miterlimit:10;}
	.st16{fill:url(#SVGID_10_);stroke:#F2F2F2;stroke-miterlimit:10;}
	.st17{fill:#FFFFFF;}
	.st18{fill:#B3B3B3;stroke:#999999;stroke-miterlimit:10;}
	.st19{fill:#FFFFFF;stroke:#4D4D4D;stroke-miterlimit:10;}
	.st20{fill:#FFFFFF;stroke:#999999;stroke-miterlimit:10;}
</style>
<path class="st0" d="M131.68,303.93c-12.97,10.3-29.37,16.47-47.21,16.49c-42.05,0.07-76.2-33.97-76.26-76.02
	c-0.07-42.05,33.97-76.2,76.02-76.26c17.16-0.03,32.99,5.62,45.74,15.17c-5.09-1.33-10.43-2.03-15.94-2.03
	c-34.56,0.05-62.53,28.11-62.48,62.67c0.05,34.56,28.11,62.53,62.67,62.48C120.28,306.43,126.14,305.56,131.68,303.93z"/>
<path class="st0" d="M191.54,49.66c14.01-16.02,33.1-27.21,55.19-30.56c52.06-7.9,101.1,30.74,109.52,86.29
	c8.43,55.55-26.94,106.99-79,114.89c-21.24,3.22-41.97-1.29-59.65-11.55c6.57,0.82,13.32,0.75,20.14-0.28
	c42.78-6.49,71.85-48.76,64.92-94.41c-6.93-45.65-47.22-77.4-90.01-70.91C205.16,44.25,198.08,46.49,191.54,49.66z"/>
<path class="st1" d="M214.24,215.8c-0.09,50.61,0.86,87.75,1.57,124.91c0.5,26.16,1.51,52.3,1.84,78.47
	c0.23,18.16-0.43,36.36-0.48,54.54c-0.03,10.72-3.29,19.14-4.95,28.68c-4.84,27.78-9.95,55.4-14.88,83.12
	c-1.84,10.33-4.28,11.88-7.66,3.08c-6.59-17.15-13.69-33.8-21.77-47.91c-9.27-16.19-11.96-38.64-18.24-57.5
	c-2.52-7.59-3.9-16.59-6.44-24.15c-1.91-5.67-2.24-11.28-2.15-17.49c0.61-42.82-2.03-85.47-1.97-128.26
	c0.08-65.27-1.83-130.5-1.28-195.78c0.1-11.96-0.86-23.96-1.39-35.93c-0.21-4.7,0.66-7.91,2.7-10.77
	c11.85-16.6,21.97-36.86,32.09-57.08c1.46-2.91,2.61-2.16,3.88,0.28c12.46,24.05,21.88,52.76,32.95,78.95
	c4.63,10.96,6.62,23.1,6.33,37.57C213.74,163.38,214.79,196.32,214.24,215.8z"/>
<path class="st2" d="M207.95,141.94c0.83,20.99,0.29,40.42,0.29,59.85c-0.02,41.96,0.6,83.89,1.26,125.83
	c0.62,39.52,2.37,78.98,1.94,118.56c-0.08,7.46,0.19,14.89-0.55,22.31c-0.45,4.47-1.41,7.17-3.97,7.64
	c-8.46,1.53-16.92,1.06-25.38,0.06c-1.78-0.21-2.11-2.46-2.3-5.48c-1.42-23.06-3.21-46.06-4.36-69.17
	c-1.5-30.05-2.9-60.16-3.61-90.31c-0.64-26.93,0.44-54.02-1.02-80.86c-1.14-20.84,0.99-40.31,4.13-59.8
	c0.75-4.66,2.24-6.02,4.61-6.24c6.23-0.57,12.48-0.48,18.66-2.92c2.64-1.04,4.58-1.85,5.53-7.67
	C203.83,149.67,205.38,145.85,207.95,141.94z"/>
<path class="st3" d="M157.17,140.42c-0.13,3.04-0.03,4.76-0.3,6.22c-2.37,12.72-0.82,24.34,3.2,34.59
	c7.48,19.08,7.91,41.4,7.91,63.46c0.01,49.79,1.95,99.38,3.24,149.04c0.63,24,0.95,48.13-0.45,72.13
	c-0.55,9.42-1.63,10.48-5.56,5.09c-3.26-4.47-7.56-6.7-9.18-14.84c-1.15-5.77-1.28-11.98-1.94-17.96
	c-3.84-34.69-4.28-70.02-5.82-105.17c-2.37-54.11-2.34-108.45-4.92-162.54c-0.84-17.54-0.81-35.22-1.14-52.84
	c-0.03-1.75-0.47-4.02,0.57-5.14c1.07-1.15,1.99,0.72,2.47,1.98c2.37,6.18,5.87,9.7,8.88,14.31
	C156.47,132.33,157.62,136.24,157.17,140.42z"/>
<path class="st4" d="M182.51,158c-8.1,2.39-10.33-10.88-14.4-19.44c-5.5-11.56-3.71-25.19-2.66-37.9
	c1.95-23.7,4.54-47.22,7.65-70.49c0.3-2.22,0.06-5.58,1.56-5.92c1.28-0.3,1.98,2.51,2.66,4.5c10.58,30.98,19.85,63.37,28.38,96.57
	c1.08,4.19,0.04,6.89-0.71,10.36c-2.47,11.54-5.57,20.68-13.27,19.4C188.62,154.56,185.78,159.68,182.51,158z"/>
<path class="st5" d="M186.65,483.85c5.41,0.58,10.82,1.22,16.24,1.73c2.34,0.22,3.26,2.12,2.69,6.69
	c-2.56,20.47-4.94,41.02-8.89,60.75c-1.34,6.71-2.3,13.71-3.49,20.53c-0.7,3.98-1.81,3.84-2.72,0.37
	c-4.48-17.16-9.34-34.03-13.18-51.72c-2.44-11.24-0.08-23.2,1.49-34.51C179.32,483.87,179.96,483.95,186.65,483.85z"/>
<path class="st6" d="M167.73,41.1c-1.73,15.45-3.43,31.53-5.37,47.51c-1.23,10.08-2.86,19.98-4.23,30.01
	c-0.71,5.17-1.55,7.99-4.28,2.99c-3.05-5.58-6.05-11.26-9.33-16.43c-2.46-3.87-3.26-9.57-0.99-15.66
	c3.45-9.27,6.78-18.63,11.37-26.11C159.26,56.29,163.4,48.66,167.73,41.1z"/>
<path class="st5" d="M172.59,163.6c-1.1,9.17-2.02,18.59-3.83,27.56c-0.78,3.86-1.77,3.88-2.73,0.28c-4.36-16.3-8.1-32.83-5.2-51.8
	c0.3-1.99,0.2-4.59,1.64-4.94c1.14-0.28,1.46,1.7,2.05,3.25c1.88,4.94,3.96,9.6,6.01,14.31
	C171.94,155.53,172.24,159.44,172.59,163.6z"/>
<path class="st6" d="M157.57,469.64c8.67,4.49,11.86,15.21,11.78,30.33c-0.02,3.65,0.49,7.92-2.25,8.83
	c-2.71,0.9-5.37,0.95-6.51-5.32C158.62,492.64,158.05,481.39,157.57,469.64z"/>
<path class="st4" d="M144.85,314.15c1.14,41.04,2.32,82.07,3.36,123.11c0.09,3.6,1.23,10.17-1.13,10.45c-3.22,0.38-1.9-6.41-2-10.13
	c-0.4-16-0.59-32.01-0.85-48.02c-0.93-11.42-0.29-22.91-0.43-34.36c-0.15-11.77-0.12-23.54-0.04-35.31
	C143.76,317.93,142.9,314.9,144.85,314.15z"/>
<linearGradient id="SVGID_1_" gradientUnits="userSpaceOnUse" x1="-59.3373" y1="306.6451" x2="-55.6065" y2="306.6451" gradientTransform="matrix(0.8983 -1.400337e-03 1.558941e-03 1 194.3102 2.4709)">
	<stop  offset="0" style="stop-color:#FFFFFF"/>
	<stop  offset="1" style="stop-color:#000000"/>
</linearGradient>
<path class="st7" d="M144.85,314.15c-1.38,6.11-0.66,12.57-0.69,18.84c-0.1,18.85,0.03,37.71,0.07,56.57
	c-1.08-4.57-0.64-9.5-0.63-14.17c0.1-43.53-1.38-86.95-2.16-130.42c-0.1-5.5-0.3-11.1,2.01-16.13
	C143.91,257.27,144.38,285.71,144.85,314.15z"/>
<path class="st5" d="M199.67,82.66c3.67,7.33,5.81,16.7,8.94,24.73c1.47,3.76,1.11,7.14-0.27,11.62
	c-3.03-12.33-7.49-22.16-9.64-34.46C198.48,82.89,198.89,82.42,199.67,82.66z"/>
<linearGradient id="SVGID_2_" gradientUnits="userSpaceOnUse" x1="19.0165" y1="334.1484" x2="20.8918" y2="334.1484" gradientTransform="matrix(0.8983 -1.400337e-03 1.558941e-03 1 194.3102 2.4709)">
	<stop  offset="0" style="stop-color:#FFFFFF"/>
	<stop  offset="1" style="stop-color:#000000"/>
</linearGradient>
<path class="st8" d="M211.87,310.66c1.9,17.15,2.33,34.47,0.83,51.87C211.5,345.33,212.38,327.99,211.87,310.66z"/>
<linearGradient id="SVGID_3_" gradientUnits="userSpaceOnUse" x1="-25.8004" y1="538.5708" x2="-14.9243" y2="538.5708" gradientTransform="matrix(0.8983 -1.400337e-03 1.558941e-03 1 194.3102 2.4709)">
	<stop  offset="0" style="stop-color:#FFFFFF"/>
	<stop  offset="1" style="stop-color:#000000"/>
</linearGradient>
<path class="st9" d="M181.77,555.63c-4.45-8.25-6.97-18.89-9.82-29.12C177.38,533.56,179.15,545.12,181.77,555.63z"/>
<linearGradient id="SVGID_4_" gradientUnits="userSpaceOnUse" x1="-53.782" y1="469.9024" x2="-46.2797" y2="469.9024" gradientTransform="matrix(0.8983 -1.400337e-03 1.558941e-03 1 194.3102 2.4709)">
	<stop  offset="0" style="stop-color:#FFFFFF"/>
	<stop  offset="1" style="stop-color:#000000"/>
</linearGradient>
<path class="st10" d="M153.49,486.83c-2.18-8.2-4.38-16.38-6.51-24.62c-0.37-1.43-0.47-3.31,0.5-4.09c0.35-0.28,1.27,0.35,1.4,0.98
	C150.77,468.05,153.64,476.34,153.49,486.83z"/>
<path class="st4" d="M199.67,82.66c-0.32,0.63-0.65,1.26-0.97,1.89c-2.76-4.83-3.3-12.12-5.24-17.94
	C196.59,70.44,198.54,75.95,199.67,82.66z"/>
<linearGradient id="SVGID_5_" gradientUnits="userSpaceOnUse" x1="-50.2026" y1="437.6199" x2="-47.09" y2="437.6199" gradientTransform="matrix(0.8983 -1.400337e-03 1.558941e-03 1 194.3102 2.4709)">
	<stop  offset="0" style="stop-color:#FFFFFF"/>
	<stop  offset="1" style="stop-color:#000000"/>
</linearGradient>
<path class="st11" d="M150.27,429.75c2.3,6.31,1.45,12.83,2.39,18.46c0.15,0.89-0.12,2.13-0.82,2.33c-0.91,0.27-1.3-1.08-1.43-2.29
	C149.78,442.53,149.72,436.78,150.27,429.75z"/>
<linearGradient id="SVGID_6_" gradientUnits="userSpaceOnUse" x1="-47.61" y1="463.5907" x2="-44.3013" y2="463.5907" gradientTransform="matrix(0.8983 -1.400337e-03 1.558941e-03 1 194.3102 2.4709)">
	<stop  offset="0" style="stop-color:#FFFFFF"/>
	<stop  offset="1" style="stop-color:#000000"/>
</linearGradient>
<path class="st12" d="M152.36,459.27c1.56,4.02,3.46,7.68,2.72,13.72C152.44,469.22,152.02,464.44,152.36,459.27z"/>
<linearGradient id="SVGID_7_" gradientUnits="userSpaceOnUse" x1="-59.0824" y1="73.6538" x2="-53.9124" y2="73.6538" gradientTransform="matrix(0.8983 -1.400337e-03 1.558941e-03 1 194.3102 2.4709)">
	<stop  offset="0" style="stop-color:#FFFFFF"/>
	<stop  offset="1" style="stop-color:#000000"/>
</linearGradient>
<path class="st13" d="M145.99,71.41c-1.14,4.44-1.6,8.76-4.63,9.59C141.78,75.66,143.03,72.7,145.99,71.41z"/>
<linearGradient id="SVGID_8_" gradientUnits="userSpaceOnUse" x1="-24.1155" y1="485.9827" x2="-21.3566" y2="485.9827" gradientTransform="matrix(0.8983 -1.400337e-03 1.558941e-03 1 194.3102 2.4709)">
	<stop  offset="0" style="stop-color:#FFFFFF"/>
	<stop  offset="1" style="stop-color:#000000"/>
</linearGradient>
<path class="st14" d="M174.78,492.91c-1.37-2.76-1.87-5.58-0.81-8.53c0.16-0.44,1.24-0.42,1.41,0.04
	C176.5,487.47,175.48,490.15,174.78,492.91z"/>
<linearGradient id="SVGID_9_" gradientUnits="userSpaceOnUse" x1="-25.5926" y1="472.1386" x2="-22.6766" y2="472.1386" gradientTransform="matrix(0.8983 -1.400337e-03 1.558941e-03 1 194.3102 2.4709)">
	<stop  offset="0" style="stop-color:#FFFFFF"/>
	<stop  offset="1" style="stop-color:#000000"/>
</linearGradient>
<path class="st15" d="M174.67,473.4c0.02,3.29-0.39,4.25-1.2,4.15c-0.95-0.13-1.43-1.34-1.42-3.16c0-1.47,0.41-2.88,1.14-2.62
	C173.93,472.02,174.56,473.27,174.67,473.4z"/>
<linearGradient id="SVGID_10_" gradientUnits="userSpaceOnUse" x1="17.9492" y1="291.4164" x2="19.7667" y2="291.4164" gradientTransform="matrix(0.8983 -1.400337e-03 1.558941e-03 1 194.3102 2.4709)">
	<stop  offset="0" style="stop-color:#FFFFFF"/>
	<stop  offset="1" style="stop-color:#000000"/>
</linearGradient>
<path class="st16" d="M211.57,289.24c1.55,3.92,0.98,6.22-0.15,9.23C210.69,295.3,210.69,292.93,211.57,289.24z"/>
<g>
	<line class="st0" x1="224.9" y1="428.21" x2="224.9" y2="428.21"/>
	<line class="st0" x1="327.5" y1="298.59" x2="327.49" y2="298.58"/>
	<path class="st0" d="M327.49,298.58c-7.15-10.64-18.64-17.83-32.04-18.58c-23.72-1.33-44.41,18.02-46.21,43.23
		c-1.53,21.44,11.08,40.19,29.47,46.16c-2.68,0.26-5.42,0.31-8.18,0.16c-30.21-1.7-52.92-27.97-50.73-58.7
		c2.2-30.72,28.46-54.26,58.67-52.56C302.4,259.62,321.63,276.39,327.49,298.58z"/>
	<path class="st0" d="M334.41,428.19c-2.2,30.72-28.46,54.26-58.67,52.56c-28.17-1.57-49.81-24.53-50.84-52.54
		c5.11,17.23,19.75,30.04,37.89,31.05c23.72,1.33,44.41-18.03,46.21-43.24c1.57-21.96-11.71-41.11-30.84-46.56
		c1.82-0.09,3.67-0.07,5.52,0.03C313.88,371.18,336.6,397.46,334.41,428.19z"/>
	<line class="st0" x1="224.9" y1="428.21" x2="224.9" y2="428.21"/>
</g>
<path class="st17" d="M279.38,130.9c-0.95-1.09-1.46-1.88-2.15-2.45c-2.15-1.74-4.61-3.16-6.5-5.13c-3.97-4.12-6.3-9.18-7.55-14.77
	c-1.75-7.85-3.89-15.63-3.34-23.79c0.14-2.14,0.26-4.29,0.4-6.44c0.1-1.58-0.26-3.21-1.93-3.43c-1.69-0.23-1.86,1.52-2.16,2.78
	c-1.24,5.26-2.45,10.54-3.71,15.8c-1.78,7.4-5.19,13.77-11.33,18.57c-3.86,3.02-7.87,5.65-12.64,7.01
	c-1.66,0.48-3.28,1.14-4.85,1.87c-0.6,0.28-1.47,1.1-1.38,1.51c0.13,0.64,0.86,1.38,1.52,1.65c8.63,3.52,13.5,10.44,15.59,18.97
	c1.38,5.63,1.03,11.69,1.38,17.56c0.15,2.56,0.01,5.14,0.25,7.69c0.08,0.82,0.99,1.56,1.51,2.34c0.78-0.65,2.02-1.16,2.26-1.97
	c1.8-6.09,4.41-11.82,7.39-17.39c2.95-5.51,6.2-10.75,11.7-14.28c3.95-2.53,8.29-3.77,12.72-4.94
	C277.36,131.86,278.1,131.44,279.38,130.9z"/>
<path class="st18" d="M279.38,130.9c-1.27,0.54-2.02,0.96-2.82,1.17c-4.43,1.16-8.77,2.4-12.72,4.94c-5.5,3.53-8.75,8.77-11.7,14.28
	c-2.98,5.57-5.59,11.3-7.39,17.39c-0.24,0.81-1.48,1.32-2.26,1.97c-0.53-0.78-1.43-1.52-1.51-2.34c-0.25-2.55-0.1-5.13-0.25-7.69
	c-0.35-5.87,0-11.93-1.38-17.56c-2.09-8.53-6.96-15.45-15.59-18.97c-0.65-0.27-1.39-1.01-1.52-1.65c-0.08-0.41,0.78-1.23,1.38-1.51
	c1.57-0.74,3.19-1.39,4.85-1.87c4.77-1.37,8.78-3.99,12.64-7.01c6.14-4.8,9.56-11.17,11.33-18.57c1.26-5.26,2.46-10.53,3.71-15.8
	c0.3-1.26,0.47-3.01,2.16-2.78c1.68,0.23,2.04,1.85,1.93,3.43c-0.14,2.15-0.26,4.29-0.4,6.44c-0.55,8.16,1.59,15.94,3.34,23.79
	c1.25,5.59,3.58,10.65,7.55,14.77c1.9,1.97,4.36,3.39,6.5,5.13C277.92,129.02,278.43,129.81,279.38,130.9z M256.52,95.13
	c-0.68,0.64-1.22,0.96-1.47,1.43c-0.66,1.22-1.29,2.47-1.77,3.76c-3.15,8.56-9.05,14.6-17.03,18.77c-1.72,0.9-3.42,1.83-5.12,2.77
	c-1.2,0.66-1.38,1.44-0.28,2.43c1.08,0.97,2.17,1.96,3.15,3.02c4.79,5.19,8.48,10.97,9.12,18.21c0.28,3.17,0.28,6.37,0.5,9.55
	c0.05,0.75,0.49,1.47,0.76,2.21c0.72-0.54,1.72-0.92,2.13-1.63c2.45-4.27,4.69-8.65,7.16-12.9c0.93-1.6,2.15-3.07,3.43-4.41
	c3.41-3.59,7.81-5.66,12.29-7.55c2.07-0.87,2.29-1.66,0.84-3.36c-0.4-0.47-0.88-0.88-1.3-1.35c-4.83-5.44-8.3-11.53-9.32-18.88
	c-0.45-3.29-1.26-6.53-1.98-9.78C257.48,96.74,257.02,96.13,256.52,95.13z"/>
<path class="st17" d="M256.52,95.13c0.49,1,0.95,1.61,1.1,2.29c0.72,3.25,1.53,6.49,1.98,9.78c1.01,7.36,4.49,13.44,9.32,18.88
	c0.41,0.47,0.89,0.88,1.3,1.35c1.45,1.7,1.22,2.49-0.84,3.36c-4.48,1.89-8.87,3.96-12.29,7.55c-1.28,1.35-2.5,2.81-3.43,4.41
	c-2.46,4.26-4.71,8.64-7.16,12.9c-0.41,0.72-1.4,1.1-2.13,1.63c-0.26-0.74-0.7-1.46-0.76-2.21c-0.22-3.18-0.22-6.37-0.5-9.55
	c-0.64-7.25-4.33-13.02-9.12-18.21c-0.99-1.07-2.07-2.05-3.15-3.02c-1.09-0.98-0.92-1.76,0.28-2.43c1.7-0.94,3.4-1.87,5.12-2.77
	c7.98-4.17,13.89-10.21,17.03-18.77c0.48-1.3,1.11-2.55,1.77-3.76C255.31,96.09,255.84,95.77,256.52,95.13z"/>
<path class="st19" d="M121.03,242c-0.97-0.5-1.55-0.9-2.19-1.1c-1.99-0.61-4.11-0.91-5.99-1.75c-3.94-1.76-6.99-4.64-9.44-8.19
	c-3.43-4.99-7.12-9.82-9.03-15.68c-0.5-1.54-1.02-3.07-1.53-4.61c-0.37-1.14-1.08-2.17-2.32-1.85c-1.24,0.32-0.87,1.58-0.72,2.55
	c0.61,4.03,1.26,8.05,1.86,12.08c0.84,5.67,0.25,11.09-2.69,16.17c-1.85,3.2-3.91,6.16-6.86,8.46c-1.03,0.8-1.98,1.72-2.86,2.67
	c-0.34,0.37-0.71,1.18-0.54,1.45c0.27,0.41,0.99,0.72,1.52,0.73c7.02,0.03,12.38,3.5,16.24,8.87c2.55,3.54,4.01,7.88,5.91,11.88
	c0.83,1.75,1.45,3.59,2.34,5.3c0.29,0.55,1.13,0.81,1.72,1.21c0.36-0.67,1.09-1.38,1.03-2.01c-0.45-4.76-0.25-9.5,0.27-14.23
	c0.51-4.68,1.3-9.26,4.16-13.27c2.05-2.88,4.73-4.97,7.5-7.03C119.89,243.24,120.29,242.74,121.03,242z"/>
<path class="st18" d="M121.03,242c-0.74,0.73-1.14,1.24-1.64,1.61c-2.77,2.06-5.45,4.15-7.5,7.03c-2.85,4.02-3.65,8.59-4.16,13.27
	c-0.52,4.73-0.72,9.47-0.27,14.23c0.06,0.63-0.67,1.34-1.03,2.01c-0.59-0.39-1.43-0.66-1.72-1.21c-0.89-1.71-1.51-3.56-2.34-5.3
	c-1.9-4-3.36-8.34-5.91-11.88c-3.86-5.37-9.22-8.83-16.24-8.87c-0.53,0-1.25-0.32-1.52-0.73c-0.17-0.26,0.2-1.08,0.54-1.45
	c0.89-0.95,1.84-1.87,2.86-2.67c2.95-2.3,5.01-5.26,6.86-8.46c2.94-5.08,3.53-10.49,2.69-16.17c-0.6-4.03-1.24-8.06-1.86-12.08
	c-0.15-0.96-0.52-2.23,0.72-2.55c1.24-0.31,1.95,0.72,2.32,1.85c0.51,1.54,1.03,3.07,1.53,4.61c1.91,5.86,5.6,10.7,9.03,15.68
	c2.45,3.56,5.5,6.43,9.44,8.19c1.88,0.84,4,1.14,5.99,1.75C119.48,241.1,120.06,241.51,121.03,242z M94.99,223.44
	c-0.29,0.64-0.58,1.01-0.63,1.41c-0.12,1.04-0.21,2.09-0.17,3.13c0.21,6.87-2.21,12.75-6.62,17.92c-0.95,1.11-1.88,2.24-2.8,3.38
	c-0.65,0.8-0.56,1.4,0.48,1.77c1.03,0.37,2.07,0.76,3.06,1.23c4.81,2.28,9.02,5.27,11.5,10.16c1.09,2.14,1.99,4.37,3.04,6.53
	c0.25,0.51,0.76,0.89,1.15,1.33c0.36-0.58,0.94-1.12,1.03-1.74c0.51-3.67,0.84-7.36,1.37-11.03c0.2-1.38,0.64-2.75,1.15-4.05
	c1.37-3.47,3.86-6.15,6.46-8.74c1.2-1.19,1.14-1.81-0.36-2.58c-0.42-0.22-0.87-0.37-1.29-0.58c-4.91-2.45-9.05-5.72-11.83-10.57
	c-1.24-2.17-2.72-4.21-4.14-6.27C96.11,224.3,95.61,224,94.99,223.44z"/>
<path class="st20" d="M94.99,223.44c0.63,0.56,1.12,0.86,1.42,1.29c1.42,2.07,2.89,4.1,4.14,6.27c2.78,4.86,6.92,8.13,11.83,10.57
	c0.42,0.21,0.87,0.36,1.29,0.58c1.49,0.78,1.55,1.39,0.36,2.58c-2.6,2.58-5.09,5.27-6.46,8.74c-0.51,1.3-0.96,2.67-1.15,4.05
	c-0.52,3.67-0.86,7.36-1.37,11.03c-0.09,0.62-0.67,1.16-1.03,1.74c-0.39-0.44-0.9-0.82-1.15-1.33c-1.05-2.16-1.95-4.39-3.04-6.53
	c-2.49-4.89-6.69-7.88-11.5-10.16c-0.99-0.47-2.02-0.85-3.06-1.23c-1.04-0.38-1.14-0.97-0.48-1.77c0.92-1.13,1.85-2.27,2.8-3.38
	c4.4-5.16,6.83-11.05,6.62-17.92c-0.03-1.04,0.06-2.09,0.17-3.13C94.41,224.45,94.69,224.08,94.99,223.44z"/>
<path class="st17" d="M284.41,420.5c-0.51-0.69-0.78-1.17-1.17-1.54c-1.2-1.12-2.59-2.06-3.63-3.3c-2.18-2.6-3.34-5.69-3.85-9.05
	c-0.71-4.71-1.65-9.4-0.98-14.21c0.18-1.26,0.34-2.53,0.51-3.79c0.13-0.93-0.02-1.91-1-2.11c-0.99-0.2-1.16,0.82-1.39,1.55
	c-0.96,3.06-1.89,6.13-2.85,9.19c-1.36,4.3-3.65,7.93-7.48,10.5c-2.41,1.62-4.89,3.01-7.77,3.62c-1,0.21-1.99,0.53-2.95,0.9
	c-0.37,0.14-0.91,0.59-0.88,0.84c0.05,0.38,0.45,0.85,0.83,1.04c4.95,2.44,7.55,6.74,8.43,11.87c0.58,3.38,0.12,6.95,0.08,10.44
	c-0.02,1.52-0.21,3.04-0.17,4.56c0.01,0.49,0.52,0.96,0.8,1.45c0.49-0.35,1.24-0.6,1.42-1.07c1.32-3.52,3.1-6.8,5.1-9.97
	c1.98-3.14,4.11-6.1,7.51-7.95c2.44-1.33,5.06-1.89,7.73-2.39C283.18,420.99,283.64,420.77,284.41,420.5z"/>
<path class="st18" d="M284.41,420.5c-0.77,0.26-1.23,0.48-1.72,0.58c-2.67,0.5-5.28,1.05-7.73,2.39c-3.4,1.86-5.54,4.82-7.51,7.95
	c-2,3.17-3.78,6.45-5.1,9.97c-0.18,0.47-0.93,0.72-1.42,1.07c-0.28-0.48-0.78-0.96-0.8-1.45c-0.04-1.52,0.16-3.04,0.17-4.56
	c0.04-3.49,0.5-7.05-0.08-10.44c-0.88-5.13-3.47-9.42-8.43-11.87c-0.38-0.19-0.78-0.66-0.83-1.04c-0.03-0.24,0.51-0.69,0.88-0.84
	c0.96-0.37,1.94-0.69,2.95-0.9c2.88-0.61,5.36-1.99,7.77-3.62c3.83-2.58,6.12-6.2,7.48-10.5c0.97-3.06,1.9-6.13,2.85-9.19
	c0.23-0.73,0.4-1.76,1.39-1.55c0.98,0.2,1.13,1.18,1,2.11c-0.17,1.26-0.33,2.53-0.51,3.79c-0.67,4.8,0.27,9.49,0.98,14.21
	c0.51,3.36,1.67,6.45,3.85,9.05c1.04,1.24,2.43,2.18,3.63,3.3C283.63,419.33,283.9,419.82,284.41,420.5z M272.4,398.4
	c-0.43,0.35-0.76,0.52-0.93,0.78c-0.44,0.69-0.87,1.4-1.2,2.15c-2.22,4.93-5.96,8.26-10.86,10.39c-1.05,0.46-2.1,0.94-3.15,1.42
	c-0.74,0.34-0.87,0.8-0.27,1.42c0.6,0.62,1.2,1.25,1.74,1.92c2.62,3.27,4.56,6.84,4.63,11.15c0.03,1.89-0.1,3.78-0.1,5.67
	c0,0.45,0.23,0.89,0.35,1.34c0.45-0.29,1.05-0.47,1.33-0.88c1.63-2.42,3.14-4.92,4.77-7.33c0.61-0.91,1.4-1.72,2.21-2.47
	c2.17-1.98,4.85-3.02,7.58-3.95c1.26-0.43,1.43-0.88,0.64-1.95c-0.22-0.3-0.48-0.56-0.71-0.85c-2.63-3.42-4.43-7.16-4.72-11.55
	c-0.13-1.96-0.47-3.91-0.76-5.86C272.89,399.39,272.64,399.01,272.4,398.4z"/>
<path class="st17" d="M272.4,398.4c0.25,0.61,0.5,0.99,0.56,1.4c0.29,1.95,0.63,3.9,0.76,5.86c0.29,4.39,2.09,8.13,4.72,11.55
	c0.23,0.29,0.49,0.56,0.71,0.85c0.79,1.07,0.62,1.52-0.64,1.95c-2.73,0.93-5.41,1.97-7.58,3.95c-0.81,0.74-1.6,1.56-2.21,2.47
	c-1.63,2.41-3.14,4.91-4.77,7.33c-0.27,0.41-0.88,0.59-1.33,0.88c-0.12-0.45-0.35-0.89-0.35-1.34c0-1.89,0.13-3.78,0.1-5.67
	c-0.07-4.31-2.02-7.88-4.63-11.15c-0.54-0.67-1.14-1.3-1.74-1.92c-0.61-0.63-0.47-1.08,0.27-1.42c1.04-0.48,2.09-0.96,3.15-1.42
	c4.89-2.13,8.64-5.46,10.86-10.39c0.34-0.75,0.76-1.46,1.2-2.15C271.64,398.92,271.97,398.75,272.4,398.4z"/>
</svg>
